<svg version="1" xmlns="http://www.w3.org/2000/svg" width="666.667" height="666.667"
     viewBox="0 0 500.000000 500.000000">
  <path
    d="M202.7 21.6c-.1.1-3.4.4-7.4.8-15.8 1.3-29.3 6.1-42.2 14.9-6.6 4.5-16.5 14.7-18.9 19.3-3.1 6-4.3 16.7-3.1 26.4 1.5 11.4 3.2 18 8.7 34 4.9 14 21.9 47.3 32.6 64 29.9 46.2 51.4 73.8 79.9 102.2l14.7 14.7-6.8 4.8c-6.9 4.8-53.1 37.1-97.7 68.1-13.2 9.2-27.1 19-31 21.6-3.8 2.7-14.2 8.4-23.2 12.7-23.5 11.2-29.7 17.9-29.2 31.3.5 14.2 11.2 25.1 32.9 33.6 11.8 4.5 30.8 5.9 39.7 2.9 8.2-2.8 11.6-6.2 16.7-16.4 1.9-3.9 4.5-8.2 5.8-9.6 1.3-1.4 18.7-13.6 38.8-26.9 20.1-13.4 47.4-31.7 60.7-40.7 13.3-9 24.4-16.3 24.7-16.3.3 0 .3 1 .1 2.3-.2 1.2-.6 5.6-1 9.7-.3 4.1-.8 9.3-1.1 11.5-.4 3.9-.5 5.5-1.9 19.9-.8 8.5-1.5 10.2-7.1 19.3-10 16.1-12 24.5-7.6 32.9 2.4 4.7 10.8 12.6 16.4 15.5 8 4.1 21.4 5.5 32.3 3.3 1.7-.3 4-.7 5.3-1 9.3-1.9 26.2-11.3 33.3-18.6 8.2-8.5 12.5-20.6 9.9-28.2-.6-1.9-4-6.4-7.5-9.9l-6.3-6.6.3-7.8c.6-13.8 1.5-30.6 2-38.3.3-4.1.7-11.8 1-17 .3-5.2.7-13.3 1-18 .3-4.7.7-13 1-18.5 1-18.1 1.5-27.9 2-34.5.2-3.6.7-11.9 1-18.5.4-6.6.8-14.9 1-18.5.2-3.6.7-11.5 1-17.5.3-6.1.7-13.9 1-17.5.2-3.6.7-11.2 1-17 .3-5.8.7-14.6 1-19.5.3-5 .7-13.3 1-18.5.3-5.2.7-12.9 1-17 .2-4.1.7-12 1-17.5 1-19 1.6-25 2.4-27.5.5-1.4 3-7.8 5.6-14.4 5.3-13.3 5.7-17.4 2.5-24.2-3.7-7.5-12.4-13.5-26.9-18.5-19.2-6.7-43.5-2.9-48.8 7.5-2 4-5.3 7.6-7 7.6-1.1 0-6.9-2.1-36.3-12.9-17.5-6.5-38.4-11.6-52.2-12.7-9.7-.8-15.8-1.1-16.1-.8zM238.4 92c11.8 5.7 26.3 17.8 58.7 49l8.9 8.5.5 49 .5 49-2.7-3c-1.4-1.7-5-5.7-7.8-9-22-25-50.4-67.4-65.3-97-19.8-39.7-17-58.2 7.2-46.5z"/>
</svg>
